<svg width="34" height="49" viewBox="0 0 34 49" fill="none" xmlns="http://www.w3.org/2000/svg">
<path d="M17 0.12738C7.6092 0.12738 0 6.92583 0 15.3469C0 29.9076 17 48.8969 17 48.8969C17 48.8969 34 29.9045 34 15.3469C34 6.92888 26.3908 0.12738 17 0.12738ZM17 23.7679C14.5653 23.7679 12.2303 22.9003 10.5088 21.356C8.78718 19.8116 7.82 17.717 7.82 15.5329C7.82 13.3489 8.78718 11.2543 10.5088 9.70991C12.2303 8.16554 14.5653 7.29793 17 7.29793C19.4347 7.29793 21.7697 8.16554 23.4912 9.70991C25.2128 11.2543 26.18 13.3489 26.18 15.5329C26.18 17.717 25.2128 19.8116 23.4912 21.356C21.7697 22.9003 19.4347 23.7679 17 23.7679Z" fill="black"/>
</svg>
