<svg width="50" height="31" viewBox="0 0 50 31" fill="none" xmlns="http://www.w3.org/2000/svg">
<path d="M49.6528 0.0585938L27.4084 19.7947C26.8359 20.3017 26.0614 20.5863 25.2542 20.5863C24.447 20.5863 23.6725 20.3017 23.1 19.7947L1.05421 0.208316C0.986437 0.430233 0.950503 0.658906 0.947266 0.888872V28.1111C0.947266 28.8331 1.26919 29.5255 1.84222 30.036C2.41525 30.5465 3.19244 30.8333 4.00282 30.8333H46.7806C47.591 30.8333 48.3682 30.5465 48.9412 30.036C49.5142 29.5255 49.8362 28.8331 49.8362 28.1111V0.888872C49.824 0.605291 49.7621 0.325148 49.6528 0.0585938ZM6.09588 28.1111H3.97227V26.1647L15.0792 16.3511L17.2334 18.2703L6.09588 28.1111ZM46.75 28.1111H44.6112L33.4737 18.2703L35.6278 16.3511L46.7348 26.1647L46.75 28.1111Z" fill="black"/>
</svg>
