<svg width="42" height="49" viewBox="0 0 42 49" fill="none" xmlns="http://www.w3.org/2000/svg">
<path d="M17.6023 28.8133C20.1537 31.8721 23.2408 34.2337 26.6467 35.7322L31.2545 31.3989C31.3911 31.2877 31.5531 31.2282 31.719 31.2282C31.8848 31.2282 32.0468 31.2877 32.1834 31.3989L40.739 37.9133C41.0638 38.1441 41.3387 38.461 41.5421 38.8389C41.7455 39.2169 41.8717 39.6455 41.9108 40.091C41.9499 40.5365 41.9009 40.9867 41.7675 41.4059C41.6341 41.8251 41.4201 42.202 41.1423 42.5067L37.1334 47.1867C36.5593 47.8571 35.8537 48.3491 35.0795 48.6187C34.3054 48.8884 33.4867 48.9274 32.6967 48.7322C24.8161 46.8087 17.5524 42.3037 11.7356 35.7322C6.048 29.0953 2.11219 20.6505 0.40563 11.4222C0.237045 10.503 0.272231 9.54796 0.507779 8.64956C0.743327 7.75117 1.17125 6.93992 1.75007 6.29443L5.90563 1.55666C6.16278 1.24435 6.47639 1.00484 6.82297 0.856069C7.16954 0.707295 7.5401 0.65311 7.90691 0.697571C8.27372 0.742033 8.62726 0.883988 8.94106 1.11281C9.25487 1.34163 9.52081 1.65138 9.71896 2.01888L15.4145 12C15.5128 12.1567 15.5658 12.3466 15.5658 12.5417C15.5658 12.7367 15.5128 12.9266 15.4145 13.0833L11.6623 18.4133C12.9647 22.358 14.9937 25.9106 17.6023 28.8133Z" fill="black"/>
</svg>
