<svg width="30" height="30" viewBox="0 0 30 30" fill="none" xmlns="http://www.w3.org/2000/svg">
<path d="M29.6945 6.47237C29.6945 6.47237 29.402 3.53208 28.5 2.24187C27.3581 0.543807 26.0792 0.533144 25.4942 0.434513C21.2995 2.78056e-07 14.9991 0 14.9991 0H14.9879C14.9879 0 8.68933 2.78056e-07 4.4928 0.434513C3.90588 0.53581 2.62893 0.543807 1.48697 2.24187C0.585039 3.53208 0.298145 6.47237 0.298145 6.47237C0.298145 6.47237 0 9.92181 0 13.3792V16.6128C0 20.0622 0.298145 23.5196 0.298145 23.5196C0.298145 23.5196 0.590664 26.4599 1.48697 27.7528C2.62893 29.4509 4.12902 29.3949 4.79844 29.5762C7.20048 29.9014 15.001 30 15.001 30C15.001 30 21.307 29.984 25.5017 29.5575C26.0886 29.4589 27.3656 29.4482 28.5075 27.7501C29.4095 26.4599 29.702 23.517 29.702 23.517C29.702 23.517 30.0001 20.0675 30.0001 16.6101V13.3766C29.9945 9.92714 29.6964 6.4697 29.6964 6.4697L29.6945 6.47237ZM11.892 20.534V8.5463L19.9963 14.5602L11.892 20.534Z" fill="white"/>
</svg>
